<svg width="2540" height="769" viewBox="0 0 2540 769" fill="none" xmlns="http://www.w3.org/2000/svg">
<circle cx="64" cy="442.546" r="64" fill="#88A2E2"/>
<path d="M316.909 576C289.394 576 265.697 570.121 245.818 558.364C226.061 546.485 210.788 529.818 200 508.364C189.333 486.788 184 461.515 184 432.546C184 403.94 189.333 378.727 200 356.909C210.788 335.091 225.818 318.061 245.091 305.818C264.485 293.576 287.152 287.455 313.091 287.455C328.848 287.455 344.121 290.061 358.909 295.273C373.697 300.485 386.97 308.667 398.727 319.818C410.485 330.97 419.758 345.455 426.545 363.273C433.333 380.97 436.727 402.485 436.727 427.818V447.091H214.727V406.364H383.455C383.455 392.061 380.545 379.394 374.727 368.364C368.909 357.212 360.727 348.424 350.182 342C339.758 335.576 327.515 332.364 313.455 332.364C298.182 332.364 284.848 336.121 273.455 343.636C262.182 351.03 253.455 360.727 247.273 372.727C241.212 384.606 238.182 397.515 238.182 411.455V443.273C238.182 461.94 241.455 477.818 248 490.909C254.667 504 263.939 514 275.818 520.909C287.697 527.697 301.576 531.091 317.455 531.091C327.758 531.091 337.152 529.636 345.636 526.727C354.121 523.697 361.455 519.212 367.636 513.273C373.818 507.333 378.545 500 381.818 491.273L433.273 500.546C429.152 515.697 421.758 528.97 411.091 540.364C400.545 551.636 387.273 560.424 371.273 566.727C355.394 572.909 337.273 576 316.909 576ZM566.542 576.546C548.845 576.546 532.845 573.273 518.542 566.727C504.239 560.061 492.906 550.424 484.542 537.818C476.3 525.212 472.179 509.758 472.179 491.455C472.179 475.697 475.209 462.727 481.269 452.546C487.33 442.364 495.512 434.303 505.815 428.364C516.118 422.424 527.633 417.94 540.36 414.909C553.088 411.879 566.057 409.576 579.269 408C595.997 406.061 609.572 404.485 619.997 403.273C630.421 401.94 637.997 399.818 642.724 396.909C647.451 394 649.815 389.273 649.815 382.727V381.455C649.815 365.576 645.33 353.273 636.36 344.546C627.512 335.818 614.3 331.455 596.724 331.455C578.421 331.455 563.997 335.515 553.451 343.636C543.027 351.636 535.815 360.546 531.815 370.364L480.724 358.727C486.785 341.758 495.633 328.061 507.269 317.636C519.027 307.091 532.542 299.455 547.815 294.727C563.088 289.879 579.148 287.455 595.997 287.455C607.148 287.455 618.966 288.788 631.451 291.455C644.057 294 655.815 298.727 666.724 305.636C677.754 312.546 686.785 322.424 693.815 335.273C700.845 348 704.36 364.546 704.36 384.909V570.364H651.269V532.182H649.088C645.572 539.212 640.3 546.121 633.269 552.909C626.239 559.697 617.209 565.333 606.179 569.818C595.148 574.303 581.936 576.546 566.542 576.546ZM578.36 532.909C593.391 532.909 606.239 529.94 616.906 524C627.694 518.061 635.876 510.303 641.451 500.727C647.148 491.03 649.997 480.667 649.997 469.636V433.636C648.057 435.576 644.3 437.394 638.724 439.091C633.269 440.667 627.027 442.061 619.997 443.273C612.966 444.364 606.118 445.394 599.451 446.364C592.785 447.212 587.209 447.94 582.724 448.546C572.179 449.879 562.542 452.121 553.815 455.273C545.209 458.424 538.3 462.97 533.088 468.909C527.997 474.727 525.451 482.485 525.451 492.182C525.451 505.636 530.421 515.818 540.36 522.727C550.3 529.515 562.966 532.909 578.36 532.909ZM974.266 359.273L924.993 368C922.933 361.697 919.66 355.697 915.175 350C910.812 344.303 904.872 339.636 897.357 336C889.842 332.364 880.448 330.546 869.175 330.546C853.781 330.546 840.933 334 830.63 340.909C820.327 347.697 815.175 356.485 815.175 367.273C815.175 376.606 818.63 384.121 825.539 389.818C832.448 395.515 843.6 400.182 858.993 403.818L903.357 414C929.054 419.94 948.206 429.091 960.812 441.455C973.418 453.818 979.721 469.879 979.721 489.636C979.721 506.364 974.872 521.273 965.175 534.364C955.6 547.333 942.206 557.515 924.993 564.909C907.903 572.303 888.084 576 865.539 576C834.266 576 808.751 569.333 788.993 556C769.236 542.546 757.115 523.455 752.63 498.727L805.175 490.727C808.448 504.424 815.175 514.788 825.357 521.818C835.539 528.727 848.812 532.182 865.175 532.182C882.993 532.182 897.236 528.485 907.903 521.091C918.569 513.576 923.903 504.424 923.903 493.636C923.903 484.909 920.63 477.576 914.084 471.636C907.66 465.697 897.781 461.212 884.448 458.182L837.175 447.818C811.115 441.879 791.842 432.424 779.357 419.455C766.993 406.485 760.812 390.061 760.812 370.182C760.812 353.697 765.418 339.273 774.63 326.909C783.842 314.546 796.569 304.909 812.812 298C829.054 290.97 847.66 287.455 868.63 287.455C898.812 287.455 922.569 294 939.903 307.091C957.236 320.061 968.69 337.455 974.266 359.273ZM1148.08 576C1120.57 576 1096.87 570.121 1076.99 558.364C1057.23 546.485 1041.96 529.818 1031.17 508.364C1020.51 486.788 1015.17 461.515 1015.17 432.546C1015.17 403.94 1020.51 378.727 1031.17 356.909C1041.96 335.091 1056.99 318.061 1076.26 305.818C1095.66 293.576 1118.32 287.455 1144.26 287.455C1160.02 287.455 1175.29 290.061 1190.08 295.273C1204.87 300.485 1218.14 308.667 1229.9 319.818C1241.66 330.97 1250.93 345.455 1257.72 363.273C1264.51 380.97 1267.9 402.485 1267.9 427.818V447.091H1045.9V406.364H1214.63C1214.63 392.061 1211.72 379.394 1205.9 368.364C1200.08 357.212 1191.9 348.424 1181.35 342C1170.93 335.576 1158.69 332.364 1144.63 332.364C1129.35 332.364 1116.02 336.121 1104.63 343.636C1093.35 351.03 1084.63 360.727 1078.44 372.727C1072.38 384.606 1069.35 397.515 1069.35 411.455V443.273C1069.35 461.94 1072.63 477.818 1079.17 490.909C1085.84 504 1095.11 514 1106.99 520.909C1118.87 527.697 1132.75 531.091 1148.63 531.091C1158.93 531.091 1168.32 529.636 1176.81 526.727C1185.29 523.697 1192.63 519.212 1198.81 513.273C1204.99 507.333 1209.72 500 1212.99 491.273L1264.44 500.546C1260.32 515.697 1252.93 528.97 1242.26 540.364C1231.72 551.636 1218.44 560.424 1202.44 566.727C1186.57 572.909 1168.44 576 1148.08 576Z" fill="#88A2E2"/>
<path d="M1433.09 575.636C1410.55 575.636 1390.42 569.879 1372.73 558.364C1355.15 546.727 1341.33 530.182 1331.27 508.727C1321.33 487.152 1316.36 461.273 1316.36 431.091C1316.36 400.909 1321.39 375.091 1331.45 353.636C1341.64 332.182 1355.58 315.758 1373.27 304.364C1390.97 292.97 1411.03 287.273 1433.45 287.273C1450.79 287.273 1464.73 290.182 1475.27 296C1485.94 301.697 1494.18 308.364 1500 316C1505.94 323.636 1510.55 330.364 1513.82 336.182H1517.09V197.818H1571.45V570.182H1518.36V526.727H1513.82C1510.55 532.667 1505.82 539.455 1499.64 547.091C1493.58 554.727 1485.21 561.394 1474.55 567.091C1463.88 572.788 1450.06 575.636 1433.09 575.636ZM1445.09 529.273C1460.73 529.273 1473.94 525.152 1484.73 516.909C1495.64 508.546 1503.88 496.97 1509.45 482.182C1515.15 467.394 1518 450.182 1518 430.546C1518 411.152 1515.21 394.182 1509.64 379.636C1504.06 365.091 1495.88 353.758 1485.09 345.636C1474.3 337.515 1460.97 333.455 1445.09 333.455C1428.73 333.455 1415.09 337.697 1404.18 346.182C1393.27 354.667 1385.03 366.242 1379.45 380.909C1374 395.576 1371.27 412.121 1371.27 430.546C1371.27 449.212 1374.06 466 1379.64 480.909C1385.21 495.818 1393.45 507.636 1404.36 516.364C1415.39 524.97 1428.97 529.273 1445.09 529.273ZM1754.91 575.818C1728.72 575.818 1705.88 569.818 1686.36 557.818C1666.85 545.818 1651.69 529.03 1640.91 507.455C1630.12 485.879 1624.72 460.667 1624.72 431.818C1624.72 402.849 1630.12 377.515 1640.91 355.818C1651.69 334.121 1666.85 317.273 1686.36 305.273C1705.88 293.273 1728.72 287.273 1754.91 287.273C1781.09 287.273 1803.94 293.273 1823.45 305.273C1842.97 317.273 1858.12 334.121 1868.91 355.818C1879.69 377.515 1885.09 402.849 1885.09 431.818C1885.09 460.667 1879.69 485.879 1868.91 507.455C1858.12 529.03 1842.97 545.818 1823.45 557.818C1803.94 569.818 1781.09 575.818 1754.91 575.818ZM1755.09 530.182C1772.06 530.182 1786.12 525.697 1797.27 516.727C1808.42 507.758 1816.66 495.818 1822 480.909C1827.45 466 1830.18 449.576 1830.18 431.636C1830.18 413.818 1827.45 397.455 1822 382.546C1816.66 367.515 1808.42 355.455 1797.27 346.364C1786.12 337.273 1772.06 332.727 1755.09 332.727C1738 332.727 1723.81 337.273 1712.54 346.364C1701.39 355.455 1693.09 367.515 1687.63 382.546C1682.3 397.455 1679.63 413.818 1679.63 431.636C1679.63 449.576 1682.3 466 1687.63 480.909C1693.09 495.818 1701.39 507.758 1712.54 516.727C1723.81 525.697 1738 530.182 1755.09 530.182ZM2051.63 575.818C2024.6 575.818 2001.33 569.697 1981.81 557.455C1962.42 545.091 1947.51 528.061 1937.08 506.364C1926.66 484.667 1921.45 459.818 1921.45 431.818C1921.45 403.455 1926.78 378.424 1937.45 356.727C1948.11 334.909 1963.14 317.879 1982.54 305.636C2001.93 293.394 2024.78 287.273 2051.08 287.273C2072.3 287.273 2091.21 291.212 2107.81 299.091C2124.42 306.849 2137.81 317.758 2147.99 331.818C2158.3 345.879 2164.42 362.303 2166.36 381.091H2113.45C2110.54 368 2103.87 356.727 2093.45 347.273C2083.14 337.818 2069.33 333.091 2051.99 333.091C2036.84 333.091 2023.57 337.091 2012.18 345.091C2000.9 352.97 1992.11 364.242 1985.81 378.909C1979.51 393.455 1976.36 410.667 1976.36 430.546C1976.36 450.909 1979.45 468.485 1985.63 483.273C1991.81 498.061 2000.54 509.515 2011.81 517.636C2023.21 525.758 2036.6 529.818 2051.99 529.818C2062.3 529.818 2071.63 527.939 2079.99 524.182C2088.48 520.303 2095.57 514.788 2101.27 507.636C2107.08 500.485 2111.14 491.879 2113.45 481.818H2166.36C2164.42 499.879 2158.54 516 2148.72 530.182C2138.9 544.364 2125.75 555.515 2109.27 563.636C2092.9 571.758 2073.69 575.818 2051.63 575.818ZM2421.99 359.091L2372.72 367.818C2370.66 361.515 2367.38 355.515 2362.9 349.818C2358.54 344.121 2352.6 339.455 2345.08 335.818C2337.57 332.182 2328.17 330.364 2316.9 330.364C2301.51 330.364 2288.66 333.818 2278.35 340.727C2268.05 347.515 2262.9 356.303 2262.9 367.091C2262.9 376.424 2266.35 383.939 2273.26 389.636C2280.17 395.333 2291.32 400 2306.72 403.636L2351.08 413.818C2376.78 419.758 2395.93 428.909 2408.54 441.273C2421.14 453.636 2427.44 469.697 2427.44 489.455C2427.44 506.182 2422.6 521.091 2412.9 534.182C2403.32 547.152 2389.93 557.333 2372.72 564.727C2355.63 572.121 2335.81 575.818 2313.26 575.818C2281.99 575.818 2256.48 569.152 2236.72 555.818C2216.96 542.364 2204.84 523.273 2200.35 498.546L2252.9 490.546C2256.17 504.242 2262.9 514.606 2273.08 521.636C2283.26 528.546 2296.54 532 2312.9 532C2330.72 532 2344.96 528.303 2355.63 520.909C2366.29 513.394 2371.63 504.242 2371.63 493.455C2371.63 484.727 2368.35 477.394 2361.81 471.455C2355.38 465.515 2345.51 461.03 2332.17 458L2284.9 447.636C2258.84 441.697 2239.57 432.242 2227.08 419.273C2214.72 406.303 2208.54 389.879 2208.54 370C2208.54 353.515 2213.14 339.091 2222.35 326.727C2231.57 314.364 2244.29 304.727 2260.54 297.818C2276.78 290.788 2295.38 287.273 2316.35 287.273C2346.54 287.273 2370.29 293.818 2387.63 306.909C2404.96 319.879 2416.41 337.273 2421.99 359.091Z" fill="#F4C7B4"/>
</svg>
