<svg width="2540" height="769" viewBox="0 0 2540 769" fill="none" xmlns="http://www.w3.org/2000/svg">
<circle cx="64" cy="442.364" r="64" fill="#88A2E2"/>
<path d="M316.909 575.818C289.394 575.818 265.697 569.939 245.818 558.182C226.061 546.303 210.788 529.636 200 508.182C189.333 486.606 184 461.333 184 432.364C184 403.758 189.333 378.546 200 356.727C210.788 334.909 225.818 317.879 245.091 305.636C264.485 293.394 287.152 287.273 313.091 287.273C328.848 287.273 344.121 289.879 358.909 295.091C373.697 300.303 386.97 308.485 398.727 319.636C410.485 330.788 419.758 345.273 426.545 363.091C433.333 380.788 436.727 402.303 436.727 427.636V446.909H214.727V406.182H383.455C383.455 391.879 380.545 379.212 374.727 368.182C368.909 357.03 360.727 348.242 350.182 341.818C339.758 335.394 327.515 332.182 313.455 332.182C298.182 332.182 284.848 335.939 273.455 343.455C262.182 350.849 253.455 360.546 247.273 372.546C241.212 384.424 238.182 397.333 238.182 411.273V443.091C238.182 461.758 241.455 477.636 248 490.727C254.667 503.818 263.939 513.818 275.818 520.727C287.697 527.515 301.576 530.909 317.455 530.909C327.758 530.909 337.152 529.455 345.636 526.546C354.121 523.515 361.455 519.03 367.636 513.091C373.818 507.152 378.545 499.818 381.818 491.091L433.273 500.364C429.152 515.515 421.758 528.788 411.091 540.182C400.545 551.455 387.273 560.242 371.273 566.546C355.394 572.727 337.273 575.818 316.909 575.818ZM566.542 576.364C548.845 576.364 532.845 573.091 518.542 566.546C504.239 559.879 492.906 550.242 484.542 537.636C476.3 525.03 472.179 509.576 472.179 491.273C472.179 475.515 475.209 462.546 481.269 452.364C487.33 442.182 495.512 434.121 505.815 428.182C516.118 422.242 527.633 417.758 540.36 414.727C553.088 411.697 566.057 409.394 579.269 407.818C595.997 405.879 609.572 404.303 619.997 403.091C630.421 401.758 637.997 399.636 642.724 396.727C647.451 393.818 649.815 389.091 649.815 382.546V381.273C649.815 365.394 645.33 353.091 636.36 344.364C627.512 335.636 614.3 331.273 596.724 331.273C578.421 331.273 563.997 335.333 553.451 343.455C543.027 351.455 535.815 360.364 531.815 370.182L480.724 358.546C486.785 341.576 495.633 327.879 507.269 317.455C519.027 306.909 532.542 299.273 547.815 294.546C563.088 289.697 579.148 287.273 595.997 287.273C607.148 287.273 618.966 288.606 631.451 291.273C644.057 293.818 655.815 298.546 666.724 305.455C677.754 312.364 686.785 322.242 693.815 335.091C700.845 347.818 704.36 364.364 704.36 384.727V570.182H651.269V532H649.088C645.572 539.03 640.3 545.939 633.269 552.727C626.239 559.515 617.209 565.152 606.179 569.636C595.148 574.121 581.936 576.364 566.542 576.364ZM578.36 532.727C593.391 532.727 606.239 529.758 616.906 523.818C627.694 517.879 635.876 510.121 641.451 500.546C647.148 490.849 649.997 480.485 649.997 469.455V433.455C648.057 435.394 644.3 437.212 638.724 438.909C633.269 440.485 627.027 441.879 619.997 443.091C612.966 444.182 606.118 445.212 599.451 446.182C592.785 447.03 587.209 447.758 582.724 448.364C572.179 449.697 562.542 451.939 553.815 455.091C545.209 458.242 538.3 462.788 533.088 468.727C527.997 474.546 525.451 482.303 525.451 492C525.451 505.455 530.421 515.636 540.36 522.546C550.3 529.333 562.966 532.727 578.36 532.727ZM974.266 359.091L924.993 367.818C922.933 361.515 919.66 355.515 915.175 349.818C910.812 344.121 904.872 339.455 897.357 335.818C889.842 332.182 880.448 330.364 869.175 330.364C853.781 330.364 840.933 333.818 830.63 340.727C820.327 347.515 815.175 356.303 815.175 367.091C815.175 376.424 818.63 383.939 825.539 389.636C832.448 395.333 843.6 400 858.993 403.636L903.357 413.818C929.054 419.758 948.206 428.909 960.812 441.273C973.418 453.636 979.721 469.697 979.721 489.455C979.721 506.182 974.872 521.091 965.175 534.182C955.6 547.152 942.206 557.333 924.993 564.727C907.903 572.121 888.084 575.818 865.539 575.818C834.266 575.818 808.751 569.152 788.993 555.818C769.236 542.364 757.115 523.273 752.63 498.546L805.175 490.546C808.448 504.242 815.175 514.606 825.357 521.636C835.539 528.546 848.812 532 865.175 532C882.993 532 897.236 528.303 907.903 520.909C918.569 513.394 923.903 504.242 923.903 493.455C923.903 484.727 920.63 477.394 914.084 471.455C907.66 465.515 897.781 461.03 884.448 458L837.175 447.636C811.115 441.697 791.842 432.242 779.357 419.273C766.993 406.303 760.812 389.879 760.812 370C760.812 353.515 765.418 339.091 774.63 326.727C783.842 314.364 796.569 304.727 812.812 297.818C829.054 290.788 847.66 287.273 868.63 287.273C898.812 287.273 922.569 293.818 939.903 306.909C957.236 319.879 968.69 337.273 974.266 359.091ZM1148.08 575.818C1120.57 575.818 1096.87 569.939 1076.99 558.182C1057.23 546.303 1041.96 529.636 1031.17 508.182C1020.51 486.606 1015.17 461.333 1015.17 432.364C1015.17 403.758 1020.51 378.546 1031.17 356.727C1041.96 334.909 1056.99 317.879 1076.26 305.636C1095.66 293.394 1118.32 287.273 1144.26 287.273C1160.02 287.273 1175.29 289.879 1190.08 295.091C1204.87 300.303 1218.14 308.485 1229.9 319.636C1241.66 330.788 1250.93 345.273 1257.72 363.091C1264.51 380.788 1267.9 402.303 1267.9 427.636V446.909H1045.9V406.182H1214.63C1214.63 391.879 1211.72 379.212 1205.9 368.182C1200.08 357.03 1191.9 348.242 1181.35 341.818C1170.93 335.394 1158.69 332.182 1144.63 332.182C1129.35 332.182 1116.02 335.939 1104.63 343.455C1093.35 350.849 1084.63 360.546 1078.44 372.546C1072.38 384.424 1069.35 397.333 1069.35 411.273V443.091C1069.35 461.758 1072.63 477.636 1079.17 490.727C1085.84 503.818 1095.11 513.818 1106.99 520.727C1118.87 527.515 1132.75 530.909 1148.63 530.909C1158.93 530.909 1168.32 529.455 1176.81 526.546C1185.29 523.515 1192.63 519.03 1198.81 513.091C1204.99 507.152 1209.72 499.818 1212.99 491.091L1264.44 500.364C1260.32 515.515 1252.93 528.788 1242.26 540.182C1231.72 551.455 1218.44 560.242 1202.44 566.546C1186.57 572.727 1168.44 575.818 1148.08 575.818Z" fill="#88A2E2"/>
<path d="M1433.09 575.455C1410.55 575.455 1390.42 569.697 1372.73 558.182C1355.15 546.545 1341.33 530 1331.27 508.545C1321.33 486.97 1316.36 461.091 1316.36 430.909C1316.36 400.727 1321.39 374.909 1331.45 353.455C1341.64 332 1355.58 315.576 1373.27 304.182C1390.97 292.788 1411.03 287.091 1433.45 287.091C1450.79 287.091 1464.73 290 1475.27 295.818C1485.94 301.515 1494.18 308.182 1500 315.818C1505.94 323.455 1510.55 330.182 1513.82 336H1517.09V197.636H1571.45V570H1518.36V526.545H1513.82C1510.55 532.485 1505.82 539.273 1499.64 546.909C1493.58 554.545 1485.21 561.212 1474.55 566.909C1463.88 572.606 1450.06 575.455 1433.09 575.455ZM1445.09 529.091C1460.73 529.091 1473.94 524.97 1484.73 516.727C1495.64 508.364 1503.88 496.788 1509.45 482C1515.15 467.212 1518 450 1518 430.364C1518 410.97 1515.21 394 1509.64 379.455C1504.06 364.909 1495.88 353.576 1485.09 345.455C1474.3 337.333 1460.97 333.273 1445.09 333.273C1428.73 333.273 1415.09 337.515 1404.18 346C1393.27 354.485 1385.03 366.061 1379.45 380.727C1374 395.394 1371.27 411.939 1371.27 430.364C1371.27 449.03 1374.06 465.818 1379.64 480.727C1385.21 495.636 1393.45 507.455 1404.36 516.182C1415.39 524.788 1428.97 529.091 1445.09 529.091ZM1754.91 575.636C1728.72 575.636 1705.88 569.636 1686.36 557.636C1666.85 545.636 1651.69 528.848 1640.91 507.273C1630.12 485.697 1624.72 460.485 1624.72 431.636C1624.72 402.667 1630.12 377.333 1640.91 355.636C1651.69 333.939 1666.85 317.091 1686.36 305.091C1705.88 293.091 1728.72 287.091 1754.91 287.091C1781.09 287.091 1803.94 293.091 1823.45 305.091C1842.97 317.091 1858.12 333.939 1868.91 355.636C1879.69 377.333 1885.09 402.667 1885.09 431.636C1885.09 460.485 1879.69 485.697 1868.91 507.273C1858.12 528.848 1842.97 545.636 1823.45 557.636C1803.94 569.636 1781.09 575.636 1754.91 575.636ZM1755.09 530C1772.06 530 1786.12 525.515 1797.27 516.545C1808.42 507.576 1816.66 495.636 1822 480.727C1827.45 465.818 1830.18 449.394 1830.18 431.455C1830.18 413.636 1827.45 397.273 1822 382.364C1816.66 367.333 1808.42 355.273 1797.27 346.182C1786.12 337.091 1772.06 332.545 1755.09 332.545C1738 332.545 1723.81 337.091 1712.54 346.182C1701.39 355.273 1693.09 367.333 1687.63 382.364C1682.3 397.273 1679.63 413.636 1679.63 431.455C1679.63 449.394 1682.3 465.818 1687.63 480.727C1693.09 495.636 1701.39 507.576 1712.54 516.545C1723.81 525.515 1738 530 1755.09 530ZM2051.63 575.636C2024.6 575.636 2001.33 569.515 1981.81 557.273C1962.42 544.909 1947.51 527.879 1937.08 506.182C1926.66 484.485 1921.45 459.636 1921.45 431.636C1921.45 403.273 1926.78 378.242 1937.45 356.545C1948.11 334.727 1963.14 317.697 1982.54 305.455C2001.93 293.212 2024.78 287.091 2051.08 287.091C2072.3 287.091 2091.21 291.03 2107.81 298.909C2124.42 306.667 2137.81 317.576 2147.99 331.636C2158.3 345.697 2164.42 362.121 2166.36 380.909H2113.45C2110.54 367.818 2103.87 356.545 2093.45 347.091C2083.14 337.636 2069.33 332.909 2051.99 332.909C2036.84 332.909 2023.57 336.909 2012.18 344.909C2000.9 352.788 1992.11 364.061 1985.81 378.727C1979.51 393.273 1976.36 410.485 1976.36 430.364C1976.36 450.727 1979.45 468.303 1985.63 483.091C1991.81 497.879 2000.54 509.333 2011.81 517.455C2023.21 525.576 2036.6 529.636 2051.99 529.636C2062.3 529.636 2071.63 527.758 2079.99 524C2088.48 520.121 2095.57 514.606 2101.27 507.455C2107.08 500.303 2111.14 491.697 2113.45 481.636H2166.36C2164.42 499.697 2158.54 515.818 2148.72 530C2138.9 544.182 2125.75 555.333 2109.27 563.455C2092.9 571.576 2073.69 575.636 2051.63 575.636ZM2421.99 358.909L2372.72 367.636C2370.66 361.333 2367.38 355.333 2362.9 349.636C2358.54 343.939 2352.6 339.273 2345.08 335.636C2337.57 332 2328.17 330.182 2316.9 330.182C2301.51 330.182 2288.66 333.636 2278.35 340.545C2268.05 347.333 2262.9 356.121 2262.9 366.909C2262.9 376.242 2266.35 383.758 2273.26 389.455C2280.17 395.152 2291.32 399.818 2306.72 403.455L2351.08 413.636C2376.78 419.576 2395.93 428.727 2408.54 441.091C2421.14 453.455 2427.44 469.515 2427.44 489.273C2427.44 506 2422.6 520.909 2412.9 534C2403.32 546.97 2389.93 557.152 2372.72 564.545C2355.63 571.939 2335.81 575.636 2313.26 575.636C2281.99 575.636 2256.48 568.97 2236.72 555.636C2216.96 542.182 2204.84 523.091 2200.35 498.364L2252.9 490.364C2256.17 504.061 2262.9 514.424 2273.08 521.455C2283.26 528.364 2296.54 531.818 2312.9 531.818C2330.72 531.818 2344.96 528.121 2355.63 520.727C2366.29 513.212 2371.63 504.061 2371.63 493.273C2371.63 484.545 2368.35 477.212 2361.81 471.273C2355.38 465.333 2345.51 460.848 2332.17 457.818L2284.9 447.455C2258.84 441.515 2239.57 432.061 2227.08 419.091C2214.72 406.121 2208.54 389.697 2208.54 369.818C2208.54 353.333 2213.14 338.909 2222.35 326.545C2231.57 314.182 2244.29 304.545 2260.54 297.636C2276.78 290.606 2295.38 287.091 2316.35 287.091C2346.54 287.091 2370.29 293.636 2387.63 306.727C2404.96 319.697 2416.41 337.091 2421.99 358.909Z" fill="#B3B3B3"/>
</svg>
